# xmcd
#
# Track frame offsets:
#	200
#	10775
#	20750
#	32750
#	43475
#	54350
#	63275
#	73100
#	82325
#	91850
#	103325
#	115250
#	126050
#	135575
#	144875
#	155750
#	166250
#	176975
#	185600
#	195725
#	210425
#	220550
#
# Disc length: 3055 seconds
#
# Revision: 0
# Processed by: cddbd v1.5.1PL0 Copyright (c) Steve Scherf et al.
# Submitted via: EasyCDDAExtractor 8.0.2.1
#
DISCID=410bed16
DTITLE=Lawrence Welk - 22 Country Music Hits
DYEAR=1994
DGENRE=Acid
TTITLE0=Take Me Home, Country Roads
TTITLE1=Make The World Go Away
TTITLE2=He'll Have To Go
TTITLE3=Cold, Cold Heart 
TTITLE4=You're The Reason
TTITLE5=For The Good Times
TTITLE6=Snowbird
TTITLE7=Stand By Your Man
TTITLE8=Gentle On My Mind
TTITLE9=By The Time I Get To Phoenix
TTITLE10=Galveston
TTITLE11=Jealous Heart
TTITLE12=Slow Poke
TTITLE13=Everybody's Somebodys Fool
TTITLE14=Tumbling Tumbleweeds
TTITLE15=Mockin' Bird Hill
TTITLE16=Ramblin' Rose  
TTITLE17=Wabash Cannonball
TTITLE18=Rose Garden
TTITLE19=Little Green Apples
TTITLE20=Tennessee Waltz
TTITLE21=Jambalya
EXTD=
EXTT0=
EXTT1=
EXTT2=
EXTT3=
EXTT4=
EXTT5=
EXTT6=
EXTT7=
EXTT8=
EXTT9=
EXTT10=
EXTT11=
EXTT12=
EXTT13=
EXTT14=
EXTT15=
EXTT16=
EXTT17=
EXTT18=
EXTT19=
EXTT20=
EXTT21=
PLAYORDER=
